<?xml version="1.0" standalone="no"?>
<!DOCTYPE svg PUBLIC "-//W3C//DTD SVG 20010904//EN"
 "http://www.w3.org/TR/2001/REC-SVG-20010904/DTD/svg10.dtd">
<svg version="1.0" xmlns="http://www.w3.org/2000/svg"
 width="512.000000pt" height="512.000000pt" viewBox="0 0 512.000000 512.000000"
 preserveAspectRatio="xMidYMid meet">
<metadata>
Created by potrace 1.11, written by Peter Selinger 2001-2013
</metadata>
<g transform="translate(0.000000,512.000000) scale(0.100000,-0.100000)"
fill="#000000" stroke="none">
<path d="M0 2560 l0 -2560 2560 0 2560 0 0 2560 0 2560 -2560 0 -2560 0 0
-2560z m3480 1274 c0 -321 3 -584 8 -584 4 0 106 11 226 25 121 13 223 22 228
19 4 -3 8 -104 8 -224 l0 -219 -32 -6 c-29 -4 -885 -95 -902 -95 -3 0 -6 367
-6 815 l0 815 23 1 c12 0 114 10 227 23 113 12 208 21 213 19 4 -2 7 -267 7
-589z m-1090 -104 l0 -591 33 6 c31 5 410 45 428 45 5 0 9 -97 9 -224 l0 -224
-47 -6 c-27 -4 -219 -24 -428 -46 -209 -22 -399 -42 -422 -45 l-43 -6 0 815
c0 646 3 816 13 817 6 0 104 11 217 23 113 13 213 24 223 25 16 1 17 -33 17
-589z m-869 -315 c228 -667 264 -781 250 -787 -9 -4 -112 -16 -230 -28 -168
-17 -215 -19 -221 -9 -5 6 -19 47 -31 90 -20 64 -28 79 -44 79 -11 0 -115 -9
-232 -22 l-211 -22 -29 -98 c-22 -78 -32 -100 -48 -103 -41 -8 -437 -46 -441
-43 -4 5 509 1665 518 1674 7 6 402 53 433 50 16 -1 58 -114 286 -781z m3319
-903 l0 -219 -185 -18 -185 -18 0 -599 c0 -471 -3 -598 -12 -599 -7 0 -106
-10 -220 -22 l-208 -23 0 599 0 598 -42 -6 c-50 -6 -316 -35 -329 -35 -8 0
-14 428 -6 431 2 1 1150 126 1175 128 9 1 12 -49 12 -217z m-1312 -504 c-4
-552 -5 -576 -26 -651 -35 -127 -78 -203 -162 -288 -118 -119 -242 -176 -439
-200 -297 -37 -516 81 -598 324 l-28 82 -3 587 -3 587 33 5 c31 5 415 46 431
46 4 0 7 -246 7 -547 0 -517 2 -550 19 -590 34 -73 116 -94 201 -50 35 17 51
34 70 72 l25 50 3 551 3 551 192 20 c106 11 211 21 235 22 l43 1 -3 -572z
m-1920 347 c266 -62 477 -274 542 -545 51 -214 5 -472 -117 -669 -57 -91 -174
-217 -260 -277 -304 -218 -722 -224 -981 -16 -196 158 -296 393 -279 656 15
223 111 432 276 597 226 226 531 320 819 254z"/>
<path d="M957 3403 c-37 -141 -65 -258 -63 -260 6 -6 254 19 267 28 9 5 -5 67
-56 241 -37 128 -71 236 -75 240 -3 5 -36 -108 -73 -249z"/>
<path d="M1273 1896 c-108 -35 -194 -114 -246 -224 -30 -63 -32 -74 -32 -177
0 -100 3 -115 27 -161 38 -73 69 -106 130 -139 48 -27 61 -30 148 -30 86 0
101 3 162 32 85 40 151 106 189 188 92 197 29 423 -140 498 -58 26 -179 32
-238 13z"/>
</g>
</svg>
