<?xml version="1.0" encoding="UTF-8"?>
<svg width="22px" height="43px" viewBox="0 0 22 43" version="1.1" xmlns="http://www.w3.org/2000/svg" xmlns:xlink="http://www.w3.org/1999/xlink">
    <title>Fill 1 Copy</title>
    <g id="Welcome" stroke="none" stroke-width="1" fill="none" fill-rule="evenodd">
        <g id="Modal-Confi" transform="translate(-53.000000, -402.000000)" fill="#FFFFFF">
            <g id="Group-3" transform="translate(29.000000, 393.000000)">
                <g id="Group-7">
                    <path d="M38.3165793,52 L38.3165793,32.4036441 L44.8391935,32.4036441 L45.7788911,24.7330721 L38.3165793,24.7330721 L38.3165793,19.8619775 C38.3165793,18.7421824 38.5468996,17.8370256 39.0075336,17.1464865 C39.4681743,16.4559406 40.4723521,16.1106779 42.0201008,16.1106779 L46,16.1106779 L46,9.27995048 C45.0418728,9.20529429 44.0745408,9.13997524 43.0979906,9.08398651 C42.1214337,9.02799778 41.1541084,9 40.1959812,9 C37.3215927,9 34.9815838,9.86782873 33.1758804,11.6035135 C31.370177,13.3391983 30.467336,15.8493744 30.467336,19.1341171 L30.467336,24.7330721 L24,24.7330721 L24,32.4036441 L30.467336,32.4036441 L30.467336,52 L38.3165793,52 Z" id="Fill-1-Copy"></path>
                </g>
            </g>
        </g>
    </g>
</svg>