<?xml version="1.0" encoding="UTF-8"?>
<svg width="48px" height="38px" viewBox="0 0 48 38" version="1.1" xmlns="http://www.w3.org/2000/svg" xmlns:xlink="http://www.w3.org/1999/xlink">
    <title>Fill 1 Copy 2</title>
    <g id="Welcome" stroke="none" stroke-width="1" fill="none" fill-rule="evenodd">
        <g id="Modal-Confi" transform="translate(-130.000000, -404.000000)" fill="#FFFFFF">
            <g id="Group-3" transform="translate(29.000000, 393.000000)">
                <g id="Group-8" transform="translate(90.000000, 0.000000)">
                    <path d="M54.0798553,20.4721395 C54.0798553,20.6950168 54.0798553,20.9086022 54.0798553,21.1129024 C54.0798553,21.3172026 54.0798553,21.530788 54.0798553,21.7536653 C54.0798553,24.911061 53.469612,28.1055565 52.2491045,31.3372401 C51.0285969,34.5689304 49.2360094,37.4941229 46.8712721,40.1129058 C44.5065417,42.7316846 41.5888131,44.8582519 38.1179954,46.4926687 C34.6471847,48.1642315 30.6424573,49 26.1036946,49 C23.319412,49 20.6495984,48.6192609 18.0941631,47.857771 C15.5387236,47.0962815 13.1740275,46.0283547 11,44.6539584 C11.4195492,44.7282504 11.8200223,44.7653957 12.2014301,44.7653957 C12.5828386,44.7653957 12.9833113,44.7653957 13.4028602,44.7653957 C15.6913106,44.7653957 17.8748405,44.4125156 19.9535155,43.7067445 C22.0321884,43.000974 23.9106015,41.998054 25.5887968,40.6979443 C23.4529068,40.6608037 21.5458991,40.0200476 19.8676969,38.7756623 C18.1895016,37.5312771 17.0262251,35.9618847 16.377831,34.0674446 C16.6829575,34.104592 16.9976144,34.1417393 17.3218115,34.1788867 C17.6460085,34.216034 17.9606661,34.2346043 18.2657934,34.2346043 C18.7234811,34.2346043 19.1620941,34.1974569 19.5816464,34.123169 C20.0011917,34.0488743 20.4207371,33.9745864 20.8402894,33.9002917 C18.5899792,33.4545439 16.7115689,32.3587548 15.205006,30.6129041 C13.6984431,28.8670466 12.9451724,26.8240578 12.9451724,24.4838699 L12.9451724,24.3724346 C13.6317075,24.7067472 14.3468378,24.9853353 15.0905837,25.2082126 C15.8343302,25.4310831 16.6066707,25.5610955 17.407628,25.5982428 C16.0726989,24.7438877 15.0047713,23.6109513 14.203814,22.1994131 C13.4028567,20.7878682 13.0023839,19.2649151 13.0023839,17.6304997 C13.0023839,16.7389972 13.1263394,15.8846557 13.3742551,15.067448 C13.6221702,14.2502403 13.9558976,13.4887638 14.3754471,12.7829913 C15.5959532,14.2316768 16.9499326,15.5503364 18.4374236,16.739004 C19.9249209,17.9276649 21.5268105,18.9491661 23.2431481,19.8035144 C24.9594858,20.6578694 26.7902157,21.3450581 28.7354007,21.8651006 C30.6424433,22.3851431 32.6066611,22.7008786 34.6281309,22.8123138 C34.5518461,22.4408539 34.494636,22.0694076 34.4564937,21.6979477 C34.4183513,21.3264878 34.3992836,20.9550347 34.3992836,20.5835747 C34.3992836,17.9462216 35.3527944,15.6896474 37.25983,13.8137844 C39.1668727,11.9379145 41.4934327,11 44.2395729,11 C45.6507785,11 46.9761584,11.2785881 48.2157336,11.835778 C49.4553089,12.3929611 50.5136991,13.1358673 51.3909391,14.0645171 C52.5351689,13.8416398 53.6317015,13.5351895 54.6805718,13.1451593 C55.729442,12.7551291 56.7115544,12.2815258 57.6269369,11.724336 C57.2836693,12.8387157 56.74017,13.8509249 55.9964248,14.7609977 C55.2526797,15.6710704 54.3659128,16.4232618 53.3361102,17.0175922 C54.3277773,16.9061569 55.3003489,16.720427 56.2538737,16.4604091 C57.2073915,16.2003912 58.12276,15.8846557 59,15.5131958 C58.3134649,16.4789862 57.5601929,17.3797602 56.740163,18.2155382 C55.92014,19.051323 55.0333801,19.8035144 54.0798553,20.4721395 Z" id="Fill-1-Copy-2"></path>
                </g>
            </g>
        </g>
    </g>
</svg>