<?xml version="1.0" encoding="UTF-8"?>
<svg width="41px" height="41px" viewBox="0 0 41 41" version="1.1" xmlns="http://www.w3.org/2000/svg" xmlns:xlink="http://www.w3.org/1999/xlink">
    <title>Fill 1 Copy 3</title>
    <g id="Welcome" stroke="none" stroke-width="1" fill="none" fill-rule="evenodd">
        <g id="Modal-Confi" transform="translate(-224.000000, -403.000000)" fill="#FFFFFF">
            <g id="Group-3" transform="translate(29.000000, 393.000000)">
                <g id="Group-9" transform="translate(180.000000, 0.000000)">
                    <path d="M21.5892857,15.8571429 C25.555079,11.9523642 30.313963,10 35.8660714,10 C41.4181799,10 46.1618129,11.9371078 50.0970989,15.8113846 C54.0323849,19.6856615 56,24.3987816 56,29.9508901 C56,35.5030041 54.0323849,40.2161242 50.0970989,44.0904011 C46.1618129,47.9646768 41.4181799,49.9017857 35.8660714,49.9017857 C32.5103971,49.9017857 29.2768024,49.0781331 26.1651758,47.4308033 L15,51 L18.6607143,40.2924121 C16.7083239,37.0587616 15.7321429,33.6116267 15.7321429,29.9508901 C15.7321429,24.3987816 17.6845043,19.7009124 21.5892857,15.8571429 Z M45.8415165,37.5468736 C46.3296173,36.3266299 46.4821429,35.5334835 46.2991099,35.1674121 C46.2380952,35.0453883 45.9025312,34.831848 45.2924121,34.5267857 C45.1703883,34.465771 44.6212839,34.1607143 43.6450879,33.6116044 C42.6688918,33.0625 42.0892857,32.7574433 41.9062528,32.6964286 C41.418152,32.5133901 41.0215788,32.6049065 40.7165165,32.9709835 C40.5944927,33.0930073 40.3046924,33.413315 39.8470989,33.9319176 C39.3895054,34.4505257 39.0997052,34.7708333 38.9776814,34.8928571 C38.7336282,35.1979195 38.3675623,35.2284212 37.8794615,34.9843736 C36.2931464,34.1912161 34.9508956,33.2760459 33.8526814,32.2388407 C32.6324321,31.0796061 31.7172675,29.8898865 31.1071429,28.6696429 C30.9241044,28.3035714 31.0156208,27.9375 31.3816978,27.5714286 L32.2053571,26.7477693 C32.3883956,26.5647307 32.5714286,26.2901814 32.7544615,25.9241099 C32.8764909,25.6800567 32.8764909,25.375 32.7544615,25.0089286 C32.7544615,24.9479139 32.6476941,24.6733645 32.4341539,24.1852693 C32.220608,23.6971684 32.0070678,23.1480697 31.7935275,22.537945 C31.5799816,21.927826 31.4122052,21.4702381 31.2901758,21.1651758 C31.0461282,20.494042 30.649555,20.1584835 30.100445,20.1584835 L29.1852693,20.1584835 C28.6971684,20.1584835 28.2395861,20.3720238 27.8125,20.7991099 C26.5312416,22.0803627 25.860119,23.4836226 25.7991099,25.0089286 C25.7380952,26.7782822 26.3787161,28.5476079 27.7209835,30.3169671 L27.9955385,30.6830329 C28.1785714,30.9880952 28.3921117,31.3236593 28.6361593,31.6897307 C28.8802069,32.0558078 29.1852637,32.4828827 29.5513407,32.9709835 C29.9174121,33.4590788 30.3444927,33.9471684 30.8325879,34.4352693 C31.3206887,34.9233645 31.8240293,35.4114541 32.3426318,35.899555 C32.86124,36.3876502 33.4713479,36.8452381 34.172989,37.2723186 C34.8746301,37.6994048 35.5610091,38.0654762 36.2321429,38.3705385 C38.4285826,39.2857199 39.984368,39.8043169 40.899555,39.9263407 C41.8147363,40.0483645 42.302826,40.0178571 42.3638407,39.8348242 C42.9129506,39.7738095 43.5840732,39.514511 44.3772307,39.0569176 C45.1703883,38.5993297 45.6584835,38.0959835 45.8415165,37.5468736 Z" id="Fill-1-Copy-3"></path>
                </g>
            </g>
        </g>
    </g>
</svg>