<svg id="Layer_1" data-name="Layer 1" xmlns="http://www.w3.org/2000/svg" xmlns:xlink="http://www.w3.org/1999/xlink" viewBox="0 0 233.84 247.53"><defs><style>.cls-1{fill:none;}.cls-2{fill:#dd0202;}.cls-3{clip-path:url(#clip-path);}.cls-4{fill:#7702f2;}.cls-5{fill:#016fc7;}.cls-6{fill:#00a201;}.cls-7{fill:#e8c902;}.cls-8{fill:#e36602;}</style><clipPath id="clip-path" transform="translate(-7.61 2.53)"><path class="cls-1" d="M25.59,6.84C93.1-2.63,156.92,28,224.41,18c3.13-.76,5.68,1.25,5.68,4.66V152.27c0,3.41-2.55,6.94-5.68,7.69-67.49,10-131.31-20.65-198.82-11.17-3.13.73-5.68-1.3-5.68-4.71V14.48C19.91,11.07,22.46,7.57,25.59,6.84Z"/></clipPath></defs><path class="cls-2" d="M30.2,245a10.29,10.29,0,0,1-10.29-10.29V68.09a10.29,10.29,0,0,1,20.58,0V234.71A10.29,10.29,0,0,1,30.2,245Z" transform="translate(-7.61 2.53)"/><g class="cls-3"><path class="cls-4" d="M241.45,30.39C162.24,53.16,86.77,7.64,7.61,30.39V4C86.77-18.72,162.24,26.81,241.45,4Z" transform="translate(-7.61 2.53)"/><path class="cls-5" d="M241.45,56.75C162.24,79.52,86.77,34,7.61,56.75V30.39c79.16-22.75,154.63,22.77,233.84,0Z" transform="translate(-7.61 2.53)"/><path class="cls-6" d="M241.45,83.1c-79.21,22.77-154.68-22.75-233.84,0V56.75c79.16-22.76,154.63,22.77,233.84,0Z" transform="translate(-7.61 2.53)"/><path class="cls-7" d="M241.45,109.46c-79.21,22.77-154.68-22.76-233.84,0V83.1c79.16-22.75,154.63,22.77,233.84,0Z" transform="translate(-7.61 2.53)"/><path class="cls-8" d="M241.45,135.81c-79.21,22.77-154.68-22.75-233.84,0V109.46c79.16-22.76,154.63,22.77,233.84,0Z" transform="translate(-7.61 2.53)"/><path class="cls-2" d="M241.45,162.17c-79.21,22.77-154.68-22.76-233.84,0V135.81c79.16-22.75,154.63,22.77,233.84,0Z" transform="translate(-7.61 2.53)"/></g></svg>