<svg xmlns="http://www.w3.org/2000/svg" xmlns:xlink="http://www.w3.org/1999/xlink" viewBox="0 0 89 78">
    <defs>
        <path id="a" d="M0 .188h33.908v34.326H0z"/>
        <path id="c" d="M.164.08H24.54v34.976H.164z"/>
    </defs>
    <g fill="none" fill-rule="evenodd">
        <path fill="#FEFEFE" d="M36 2.03L45.455 1v24.616L55 24.576v9.354L36 36zM67.455 0L58 1.03V35l19-2.07v-9.353l-9.545 1.04zM16.883 15.509l-2.84 11.016 5.853-.633-3.013-10.383zm-4.513-9.54L21.352 5 32 36.775l-9.235.993-1.192-3.795-9.19.988-1.193 4.05L2 40 12.37 5.969z"/>
        <g transform="translate(0 43.099)">
            <mask id="b" fill="#fff">
                <use xlink:href="#a"/>
            </mask>
            <path fill="#FEFEFE" d="M24.24 16.578c0-4.187-2.996-7.375-7.309-6.918-4.312.455-7.264 4.27-7.264 8.457 0 4.187 2.815 7.394 7.264 6.924 4.45-.47 7.309-4.276 7.309-8.463M0 19.14C0 9.72 7.398 1.292 16.93.285c9.442-.998 16.977 5.852 16.977 15.272 0 9.465-7.4 17.846-16.977 18.859C7.398 35.422 0 28.604 0 19.139" mask="url(#b)"/>
        </g>
        <path fill="#FEFEFE" d="M35.937 62.54V41.741l9.533-1.006V61.58c0 2.867 1.134 4.112 3.313 3.88 2.18-.229 3.269-1.709 3.269-4.575V40.041l9.532-1.007V59.83c0 8.054-4.675 13.372-12.847 14.235-8.17.863-12.8-3.472-12.8-11.527"/>
        <g transform="translate(63.96 36)">
            <mask id="d" fill="#fff">
                <use xlink:href="#c"/>
            </mask>
            <path fill="#FEFEFE" d="M7.926 10.619l-7.762.82V2.656L24.54.08v8.783l-7.536.796v24.437l-9.079.959z" mask="url(#d)"/>
        </g>
    </g>
</svg>
